<svg width="72" height="23" viewBox="0 0 72 23" fill="none" xmlns="http://www.w3.org/2000/svg">
<path d="M8.73786 23C7.02206 23 5.5075 22.6946 4.19417 22.0838C2.88085 21.473 1.85349 20.5989 1.11209 19.4615C0.370697 18.3242 0 16.9551 0 15.3544V14.4698H4.13063V15.3544C4.13063 16.6813 4.54369 17.6818 5.36981 18.3558C6.19594 19.0087 7.31862 19.3352 8.73786 19.3352C10.1783 19.3352 11.248 19.0508 11.947 18.4821C12.6673 17.9135 13.0274 17.1868 13.0274 16.3022C13.0274 15.6914 12.8473 15.1964 12.4872 14.8173C12.1483 14.4382 11.6399 14.1328 10.962 13.9011C10.3054 13.6484 9.50044 13.4167 8.54722 13.206L7.81642 13.0481C6.29126 12.7111 4.97793 12.2898 3.87643 11.7843C2.79612 11.2578 1.9594 10.5733 1.36628 9.73077C0.794351 8.88828 0.508385 7.79304 0.508385 6.44505C0.508385 5.09707 0.826125 3.94918 1.46161 3.00137C2.11827 2.03251 3.02913 1.29533 4.19417 0.789836C5.38041 0.263279 6.76787 0 8.35658 0C9.94528 0 11.3539 0.27381 12.5825 0.821429C13.8323 1.34799 14.8067 2.14835 15.5057 3.22253C16.2259 4.27564 16.5861 5.60256 16.5861 7.2033V8.1511H12.4554V7.2033C12.4554 6.36081 12.286 5.68681 11.947 5.18132C11.6293 4.65476 11.1633 4.27564 10.549 4.04396C9.93469 3.79121 9.20388 3.66483 8.35658 3.66483C7.08561 3.66483 6.14298 3.90705 5.52868 4.39148C4.93557 4.85485 4.63901 5.49725 4.63901 6.31868C4.63901 6.8663 4.7767 7.32967 5.05207 7.70879C5.34863 8.08791 5.78288 8.40385 6.35481 8.65659C6.92674 8.90934 7.65755 9.13049 8.54722 9.32005L9.27802 9.47802C10.8667 9.81502 12.2436 10.2468 13.4086 10.7734C14.5949 11.2999 15.5163 11.995 16.173 12.8585C16.8297 13.7221 17.158 14.8278 17.158 16.1758C17.158 17.5238 16.8085 18.7138 16.1094 19.7459C15.4316 20.7569 14.4572 21.5572 13.1862 22.147C11.9365 22.7157 10.4537 23 8.73786 23Z" fill="black"/>
<path d="M27.9118 23C26.3442 23 24.9356 22.6841 23.6858 22.0522C22.436 21.4203 21.451 20.5041 20.7308 19.3036C20.0106 18.103 19.6505 16.6603 19.6505 14.9753V14.4698C19.6505 12.7848 20.0106 11.342 20.7308 10.1415C21.451 8.94093 22.436 8.02473 23.6858 7.39286C24.9356 6.76099 26.3442 6.44505 27.9118 6.44505C29.4793 6.44505 30.8879 6.76099 32.1377 7.39286C33.3875 8.02473 34.3725 8.94093 35.0927 10.1415C35.8129 11.342 36.173 12.7848 36.173 14.4698V14.9753C36.173 16.6603 35.8129 18.103 35.0927 19.3036C34.3725 20.5041 33.3875 21.4203 32.1377 22.0522C30.8879 22.6841 29.4793 23 27.9118 23ZM27.9118 19.4615C29.1404 19.4615 30.1571 19.0719 30.9621 18.2926C31.767 17.4922 32.1695 16.3549 32.1695 14.8805V14.5646C32.1695 13.0902 31.767 11.9634 30.9621 11.1841C30.1783 10.3837 29.1615 9.98352 27.9118 9.98352C26.6832 9.98352 25.6664 10.3837 24.8615 11.1841C24.0565 11.9634 23.654 13.0902 23.654 14.5646V14.8805C23.654 16.3549 24.0565 17.4922 24.8615 18.2926C25.6664 19.0719 26.6832 19.4615 27.9118 19.4615Z" fill="black"/>
<path d="M39.8685 22.5577V0.442308H43.872V22.5577H39.8685Z" fill="black"/>
<path d="M48.3085 22.5577V6.88736H52.312V22.5577H48.3085ZM50.3102 5.05495C49.59 5.05495 48.9757 4.82326 48.4673 4.35989C47.9801 3.89652 47.7365 3.28571 47.7365 2.52747C47.7365 1.76923 47.9801 1.15843 48.4673 0.695055C48.9757 0.231685 49.59 0 50.3102 0C51.0516 0 51.6659 0.231685 52.1531 0.695055C52.6403 1.15843 52.8839 1.76923 52.8839 2.52747C52.8839 3.28571 52.6403 3.89652 52.1531 4.35989C51.6659 4.82326 51.0516 5.05495 50.3102 5.05495Z" fill="black"/>
<path d="M56.7485 22.5577V6.88736H60.6884V8.94093H61.2604C61.5146 8.39332 61.9912 7.87729 62.6902 7.39286C63.3892 6.88736 64.4484 6.63462 65.8676 6.63462C67.0962 6.63462 68.1659 6.91896 69.0768 7.48764C70.0088 8.03526 70.729 8.80403 71.2374 9.79396C71.7458 10.7628 72 11.9002 72 13.206V22.5577H67.9965V13.522C67.9965 12.3425 67.6999 11.4579 67.1068 10.8681C66.5349 10.2784 65.7087 9.98352 64.6284 9.98352C63.3998 9.98352 62.4466 10.3942 61.7688 11.2157C61.0909 12.016 60.752 13.1429 60.752 14.5962V22.5577H56.7485Z" fill="black"/>
</svg>
